<svg width="22" height="27" viewBox="0 0 22 27" fill="none" xmlns="http://www.w3.org/2000/svg">
<path d="M21.5 16.7831V16.8505C21.4916 18.2497 21.1847 19.6322 20.5986 20.912C19.003 24.3691 15.111 26.8717 11.1334 27C11.0365 27 10.9305 27 10.8224 27C9.76442 26.997 8.71323 26.8372 7.70563 26.526C3.10375 25.1084 1.2017 20.9012 1.2017 20.9012C0.933569 20.326 0.739075 19.7214 0.622516 19.1009C-0.0535683 15.4524 2.26765 12.4498 2.7319 11.8497C3.28137 11.1411 3.91861 10.5 4.62944 9.94065L5.90724 11.7192L4.85931 12.8063C4.56183 13.1629 2.68457 15.4872 3.28178 18.5443C3.98716 22.197 7.60872 23.7625 8.21044 23.9604C8.36368 24.0125 8.52594 24.0626 8.52594 24.0626C9.34125 24.3137 10.1944 24.4313 11.05 24.4104C14.0405 24.3148 16.9635 22.4406 18.1579 19.8445C18.5947 18.87 18.8246 17.8209 18.834 16.7592C18.8573 16.0012 18.7413 15.2452 18.4914 14.5262C18.3667 14.1841 18.2114 13.853 18.0272 13.5369C17.1776 12.0606 12.6185 6.56618 11.3993 4.89199L9.93671 6.98364L13.8017 11.6431C14.0924 12.0236 14.3718 12.4237 14.631 12.8303C15.2079 13.7326 15.6654 14.4457 15.9358 15.3894C16.2067 16.2545 16.2539 17.1704 16.0733 18.0572C15.6226 19.9032 13.6529 21.8578 11.1153 21.9361C10.4041 21.9499 9.69736 21.8233 9.03857 21.5642C8.37979 21.3051 7.78279 20.919 7.2842 20.4293C6.88756 20.0554 5.35736 18.6595 5.55343 16.5722C5.71794 14.8002 7.01602 13.7304 7.30674 13.5021L8.7175 15.2872C8.28076 15.7147 8.01834 16.2797 7.97831 16.8788C7.91296 18.0616 8.81666 18.8095 9.00146 18.9552C9.35226 19.2164 9.75915 19.3986 10.1924 19.4885C10.6256 19.5784 11.0741 19.5737 11.5052 19.4748C12.1017 19.3046 12.6269 18.9563 13.0054 18.4802C13.384 18.004 13.5965 17.4243 13.6123 16.8244C13.616 16.3146 13.4724 15.814 13.1977 15.3785L6.76362 7.03365L7.05659 6.63141C8.29157 4.93548 9.52655 3.23737 10.7615 1.53709L11.3339 0.75L11.9537 1.50447C12.3143 1.93933 12.6794 2.39593 13.0332 2.84383C14.9014 5.20509 18.5545 9.48405 20.1997 12.0062L20.2199 12.0367C21.0495 13.4913 21.4895 15.1228 21.5 16.7831Z" fill="#00C191"/>
</svg>
